<svg xmlns="http://www.w3.org/2000/svg" viewBox="0 0 779.42798 957.73235">
  <defs>
    <style>
      .cls-1 {
        fill: #fff;
      }
    </style>
  </defs>
  <title>Risorsa 1</title>
  <g id="Livello_2" data-name="Livello 2">
    <g id="Cubo">
      <g>
        <polygon class="cls-1" points="247.201 224.925 385.204 157.113 385.204 90.26 179.177 191.499 247.201 224.925"/>
        <polygon class="cls-1" points="532.227 224.925 394.224 157.113 394.224 90.26 600.251 191.499 532.227 224.925"/>
        <path id="_2" data-name="2" class="cls-1" d="M389.714,652.72826,620.704,766.2351,389.714,879.73821,158.724,766.2351l230.99-113.50684m0-77.99481L0,766.23607,389.714,957.73235,779.428,766.23607,389.714,574.73345Z"/>
        <path id="_2-2" data-name="2" class="cls-1" d="M389.714,77.99453,620.70374,191.49921,389.71411,305.0038,158.72437,191.499,389.714,77.99453M389.714,0,0,191.499,389.714,382.99843,779.428,191.49921,389.714,0Z"/>
        <g id="_2-3" data-name="2">
          <polygon class="cls-1" points="79.02 629.131 79.02 328.591 139.02 357.732 139.02 599.99 79.02 629.131"/>
        </g>
        <g id="_2-4" data-name="2">
          <polygon class="cls-1" points="700.407 629.138 700.407 328.598 640.408 357.74 640.408 599.993 700.407 629.138"/>
        </g>
        <polygon class="cls-1" points="532.228 732.808 394.225 800.62 394.225 867.473 600.253 766.234 532.228 732.808"/>
        <polygon class="cls-1" points="247.203 732.808 385.205 800.62 385.205 867.473 179.178 766.234 247.203 732.808"/>
        <polygon class="cls-1" points="305.633 529.096 70.002 643.539 70.002 314.182 315.206 433.276 315.206 524.446 385.206 568.268 385.206 568.268 385.206 389.455 0.002 202.364 0.002 755.357 375.633 572.917 305.633 529.096"/>
        <polygon class="cls-1" points="394.224 389.464 394.224 568.268 464.224 524.447 464.224 433.285 709.428 314.189 709.428 643.544 473.796 529.096 403.796 572.917 779.428 755.363 779.428 202.37 394.224 389.464"/>
      </g>
    </g>
  </g>
</svg>
